<?xml version="1.0" encoding="utf-8"?>
<!-- Generator: Adobe Illustrator 23.0.2, SVG Export Plug-In . SVG Version: 6.00 Build 0)  -->
<svg version="1.1" id="Layer_1" xmlns="http://www.w3.org/2000/svg" xmlns:xlink="http://www.w3.org/1999/xlink" x="0px" y="0px"
	 viewBox="0 0 119.7 34.9" style="enable-background:new 0 0 119.7 34.9;" xml:space="preserve">
<style type="text/css">
	.st0{fill:#F5F5F5;}
	.st1{fill:none;}
	.st2{font-family:'FuturaPT-Bold';}
	.st3{font-size:11px;}
</style>
<title>knap</title>
<path class="st0" d="M112.5,0c0.8,0.4,1.6,0.7,2.5,0.9c-0.4,0.4-1.6-0.2-2.7,0.2C112.2,0.7,112.3,0.4,112.5,0z M82.6,2.2
	c0.3-0.3-1.3-0.1-1.7-0.2c0-0.1,0-0.2-0.2-0.2C80.8,2.5,82,2,82.6,2.2z M90.4,2.3c0.9-0.1,1.8,0,2.7,0.2C93,1.9,90.3,2.2,90.4,2.3z
	 M64.4,2.8c0.5,0.1,1-0.1,1.4-0.5C65.3,2.4,64.7,2.5,64.4,2.8L64.4,2.8z M71.6,3c-0.8-0.2-1.9-0.1-2.7-0.3C69.8,3.2,70.7,3.3,71.6,3
	z M101.4,3.2c1,0,1.9-0.1,2.8-0.5C103.3,2.8,101.9,2.5,101.4,3.2L101.4,3.2z M108,2.8c-0.5,0.1-1.3-0.2-1.6,0.2
	C106.9,2.9,107.8,3.2,108,2.8z M79.8,4.2c0.5-0.1,1.3,0.2,1.6-0.1C80.6,4.2,80.2,3.7,79.8,4.2z M96.4,4.5c2-0.1,3.1,0.4,4.7-0.3
	C99.4,4.5,97.5,4,96.4,4.5z M74.4,5.2C74.9,5.1,75.8,5.4,76,5C75.3,4.9,74.9,4.7,74.4,5.2z M87,5.2c-0.8-0.4-1.8-0.4-2.7-0.2
	C85.2,5.3,85.9,5.7,87,5.2z M81,5.3c-0.1-0.1-0.5,0.1-0.5,0.2c0.5,0.2,0.7-0.1,1.3,0.1h1.9c-0.3-0.3-1.3,0-1.9-0.1
	c0.1-0.7-0.7,0.1-0.6-0.3c0.1,0,0.2,0,0.2-0.2c-1.1,0.1-2.7-0.3-3.3,0.3c0.5-0.1,1.9,0.4,1.7,0C79.5,5.2,79,5.5,79,5.2
	C80,5.3,80.7,4.9,81,5.3z M45.4,5.8c0.5-0.4,2.1,0.3,2.2-0.6C46.8,5.2,45.7,5.1,45.4,5.8z M85.9,6.3c0.4,0.1,0.9,0,1.3-0.3
	C86.7,5.9,86.2,6,85.9,6.3z M28.2,6.6c-0.7,0.1-1.9-0.2-2.3,0.1C26.6,6.6,27.7,7,28.2,6.6z M22.4,7.7c0.6,0,1.2,0.1,1.4-0.3
	C23.3,7.3,22.8,7.4,22.4,7.7z M9.7,7.8C9,7.4,7.8,8.4,9.7,7.8z M0,13.8c1-0.1,1.9,0.6,2.5-0.1C1.7,13.5,0.8,13.6,0,13.8z M26.8,16.5
	c2.1-0.1,0.3-0.7-0.5,0H26.8z M4.5,18c-2.1,0.2,0,0,1.1,0.1c0.7,0.1,1.8,0.7,2,0.2c-0.9,0-0.4-0.3,0-0.5C6.6,17.7,5.6,17.7,4.5,18z
	 M2.7,19.9c1.1-0.3,2.9,0.2,2.8-0.5C4.5,19.9,3.2,19.3,2.7,19.9z M14,20.5c0.6-0.2,1.1,0.4,1.4,0C15.2,20.3,13.5,20.3,14,20.5z
	 M17.1,22c-0.7-0.3-1.5-0.3-2.2,0C15.6,22.2,16.4,22.2,17.1,22z M30.7,28.6c-0.9-0.1-1.8,0-2.7,0.3C29,28.8,29.8,28.7,30.7,28.6
	L30.7,28.6z M25.4,29.2c0.5,0,1.5-0.4,1.4-0.5c-0.4,0.1-1.1-0.2-1.2,0.1C25.8,28.9,25.5,29,25.4,29.2L25.4,29.2z M16.3,29.4
	c0-0.6-1.5-0.3-1.7-0.1C14.8,29.4,15.9,28.9,16.3,29.4L16.3,29.4z M104.8,2.4c0.8-0.1,1.7-0.1,2.5,0C107,1.8,104.6,2.2,104.8,2.4
	L104.8,2.4z M100,3.3c0.3-0.3,0.9-0.4,1.2-0.6c-0.5-0.6-1,0.6-1.4,0c-0.1-0.4,0.7,0.1,0.6-0.3c-1.4,0-2.7,0.1-4.1,0.3
	c0.4,0.1,1.1,0,1.4,0.3h-1.2c-0.2,0.7,1.2,0,1.2,0.5c-0.3,0-1.4-0.1-0.9,0.2c1.2,0,4.1,0.1,4.1-0.2C100.6,3.4,100,3.6,100,3.3z
	 M115,3.3c-3.4-0.4-5.8,0.5-9.1-0.1c0.1,0,0.3,0,0.3-0.2c-1.4,0.9-2.6,0.8-4.7,1.4c4.1,0,9.4-1,11.9,1.2c-0.4,0.1-1-0.5-1.2,0
	c0.7,0.3,1.7,0.2,2.5,0.5c0-1,1.6-0.4,2.2-0.9c-0.2-0.8-1.1-1-0.6-1.7c0.8,0.1,1.6,0.3,1.2,0.8c0.1-0.2,0.2-0.5,0.6-0.5
	c0.2,0.2,0.7,0.4,0.3,0.8c0.4-0.3,1-0.2,1.2-0.6c-0.8-0.2-0.9-1.3-1.7-1.6c-0.3,0.1,0,0.7-0.3,0.8c-2.1-0.1-4.1-1-6.1-0.6
	C112.8,2.4,114,2.7,115,3.3L115,3.3z M113.2,5c0.2-0.3,1,0.3,1.4,0.3C114.1,5.8,113.5,5.1,113.2,5z M69.4,5.3c-0.2,0-0.4,0-0.3-0.3
	c1.7-0.1,3.3,0,5,0.3c-2.1-1.1-6.5,0-8.6-1.2c-0.1,0.4-0.6,0.2-0.8,0.5C66.3,4.8,67.4,4.7,69,5c-3.4,0.4-8.5-0.8-12.2-0.2
	c0-0.2,0.2-0.3-0.2-0.3c-1.6,0-2.3,0.1-3.8,0c-2.1,1.7-6.7,1.8-9.7,1.4c0.6,0,1.6,0.2,1.6-0.5c-2.3-0.2-4.6,0.7-6.6,0.8
	c0.3,0.1,1-0.2,1.1,0.2c-4.1,0-6.1,0.2-8.3,0.2c-0.6-0.1-2.4,0.1-0.9,0.1c0.7,0.1,1.8-0.2,2.2,0.2c-2.6,0.4-4.2,0-6.2,0.7
	c0.8,0.1-0.2,0.1-0.2,0.3c2.8,0.3,5.3,0.2,7.4,0.9c-0.5,0.1-2.1-0.2-1.9,0.1C32,9,33.2,8.7,33.6,9.1C29.3,9,23.9,9.3,20.2,9.4
	c-0.1,0-2.1,0.2-1.2,0.3c3.2,1,8.3,0.1,12.1-0.3c-0.4,0.8,0.3,0,0.5,0.6c1.2-0.5,2.7,0.1,4.4,0.2c-2.7,0.3-6.3-0.3-8.5,0.1
	c0.6,0,1.3,0,1.6,0.3c-1.4,0.1-2.5-0.2-3,0.5c2,0,4.1,0.2,6.1,0.5c-1.4-0.1-2.5,0.2-0.5,0.2c1.7,0.1,3.8-0.3,4.9,0.5
	c-2.1,0.2-4.7-0.3-6.1,0.1c0.2,0,0.4,0,0.3,0.3c-0.6-0.2-2.1,0.2-1.6,0.1c1.2,0.5,2.7-0.2,4.2,0.3c-2,0.2-4-0.3-5.3,0.5
	c0.3,0.1,1-0.2,1.1,0.1c-0.5,0-1.1,0-1.2,0.3c1.5-0.2,3.7,0.4,4.7-0.3c-0.7,0.1-1.5,0.1-2.2-0.1c1.5-0.1,3.4-0.6,4.7,0
	c-0.7,0.2-1.5-0.3-2.2,0.1c0.3,0.1,1-0.2,0.8,0.3c-0.4,0.2-0.9-0.5-0.8,0.1c0.8,0,1.8-0.1,2.2,0.3c-0.8-0.1-1.6,0-2.3,0.2
	c-0.2,0-0.1-0.4-0.5-0.3c-0.8,0.3-1.9,0.1-2.3,0.3h-1.5c-0.3,0-0.4,0.2,0,0.1h0.9c1.8,0.1,4-0.2,5.2,0.5c-0.3,0.1-1-0.2-1.1,0.2
	c2,0.5,4.6,0.3,6.3,0.8c-3,0.7-5.8-0.6-8.3,0.5c0.5-0.4-0.3,0.3-0.3-0.2s0.9,0,0.8-0.5c-1.1-0.3-1.6,1-2.2,0
	c-0.9,1.5-4.2,0.3-5.9,0.8c-0.7,0.2-1.9,0.9-2.8,0.3c0.2-0.1,1.2-0.1,0.8-0.3c-0.7,0-0.9,0.5-1.7,0.3c0-0.2,0.3-0.1,0.3-0.3
	c-3.2,0.2-10.1-0.5-12.5-0.2c-1.7,0.2,1.1,0.3,1.9,0.3c0,0.1-0.1,0.2-0.2,0.3c4.1-0.4,8.3,0,12.2,1.2c2-0.4,4-0.3,6,0.2
	c-0.8,0.6-4.2-0.4-3.4,0.2c-1.6-0.2-3.1-0.2-4.7,0c0.4,0.4,1.7-0.1,2,0.3c-4.4,0-7.4-0.6-11-0.2c-0.3,0,0.1,0.3-0.2,0.3
	c-1.1-0.1-0.7,0.3,0.2,0.1c3.2-0.2,6.4,0.1,9.6,0.8c-0.5,0.7-2.9,0.1-4.2,0.1c-0.8,0,0.1,0.2,0.5,0.2c0.9,0.3,3.6,0,4.7,0.6
	c-0.3,0.1-0.9-0.2-0.9,0.2c0.5,0,1.1,0.1,1.6,0.3c-0.4,0.6-2.1,0.5-0.6,0.2c-1,0.3-2.2-0.6-2.5,0c0.9,0.1,0.8,0,1.6,0.5
	c-0.3,0-1.5-0.1-0.9,0.3c0.6-0.2,1.3-0.3,1.9-0.3c1.5,0.6,7.9,0.2,10.3,1.2c-2.1-0.1-4.2,0-6.3,0.3c1.2,0.1-0.5,0.2-0.5,0.6
	c0.7-0.1,1.4,0,2,0.3c-2.7,0-5.3,0-7.8-0.1c-0.4,0.3,0.8,0.1,1.1,0.1c3.2,0.7,8.3-0.6,10.8,0.8c0.6-0.5,1.3,0.2,1.9,0.3
	c-1.3,0.4-2.8-0.2-4.1,0.2c-1,0.3,1.2,0.1,1.4,0.1c1.4,0.2,3.6,0.9,4.9,1c-1,0.1-2.1-0.1-3.4,0c-0.6-0.1-1.6,0.2-0.5,0.1h2
	c1.7,0.7,6.1-0.3,7.2,0.6c-0.1-0.1-0.5,0-0.5,0.1c1,0.1,2.2-0.1,2.7,0.5c-1.4-0.2-3.7,0.2-4.2-0.5c-0.6,0.1-1.1,0.4-1.6,0.8
	c-1.5-0.2-2.9-0.2-4.4-0.2c0.3,0,0.8-0.2,0.6,0.3c-2.1-0.4-4.3-0.3-6.4,0.1c2.2,0.2,5,0,6.9,0.5c-2.6,0.1-5.7-0.4-7.2,0.8
	c1.1,0,2.2,0,3.3-0.2c0,0.2,0,0.5,0.3,0.5c2.3,0.3,3.4-0.5,5.2,0.2c-0.4,0.1-0.9,0.2-1.3,0.5c1.1,0.1,1.9-0.3,2.3,0
	c-0.4,0.3-2,0.2-1.9,0.5c0.7-0.1,1.6,0.1,2-0.2c0,0.2,0,0.4,0.2,0.5c1.8-0.1,3.6-0.1,5.3,0c6.7,0.6,13.8,0.8,20.7,1.2
	c1.5,0.1,3,0.2,4.5,0.3c11.3,0.5,22.7-1.1,34.2-0.5c0,0.4-0.3,0.3,0,0.6c3.5,0.3,8.6,0.3,11.6,0.6c-0.1,0-0.7-0.4-0.3-0.5
	c2,0.2,1.5-2.1,3.4-1.9c-0.4-1.8,0.2-4,2-4.5c-0.1-0.2-0.6,0-0.6-0.3c2.1-2.2,0.4-3.7,1.3-6.3c-0.9-0.6-0.2-1.6-1.1-2
	c0.3-0.3,1-0.2,1.1-0.8c-0.4,0-0.7-0.2-0.8-0.5c0.3-0.8,0-1.6,0.3-1.7c0.1-0.6-0.7-0.3-0.8-0.6c0.8-0.2,0.2-1.9,1.3-1.9
	c-0.4-0.6-0.1-1-0.6-1.4c1.1-2.1-1.1-3.7-0.5-5c0.6,0.4,0.1,0.1,0.6,0c-0.7-0.5-1.9-0.5-2.5-1.1c-4,0-7.2-1.2-11.6-1.4
	c0.1-0.2,0.6,0,0.6-0.3c-0.7-0.1-1.1,0.3-1.9,0.2c-0.1,0.7,0.5-0.1,0.5,0.3c-2.5,0.5-5.8,0.1-8.6-0.2c0.2,0,0.6,0.1,0.6-0.1
	c-2.2,0.3-4.5,0.1-6,0.8c1.5-0.1,2.9,0,4.4,0.3c-1.5,0.4-3.1,0.5-4.7,0.2c0,0.4-0.4,0.4-0.6,0.6c-0.9-0.3-4.7,0.5-6-0.5
	c-1.7,0.8-4.8-0.1-6.4,0.2c0.5-0.1,1.1,0,1.5,0.3c-2.5-0.1-4.5-0.3-6.7-0.5c-1.7-0.1-3.5,0.3-5-0.6C66.7,5.1,68.1,5.8,69.4,5.3
	L69.4,5.3z M62.7,5.2c-0.5,0.5-2,0.5-3.3,0.6C60.5,5.2,61.5,5.5,62.7,5.2z M56.9,6.1c-0.5,0.3-1,0.5-1.6,0.6
	C55.7,6.3,56.3,6,56.9,6.1z M61,6.6c0.3-0.6,1.6-0.2,2.3-0.3C64.3,6.5,61.3,6.4,61,6.6z M57.4,6.7c0.2-0.4,1.1-0.1,1.6-0.1
	C58.7,6.9,57.8,6.6,57.4,6.7L57.4,6.7z M35,14.1c0-0.4,1.3,0.1,1.6-0.3c0.2,0.1-0.1,0.2,0,0.5C36,14.2,35.2,14.4,35,14.1z M37,14.3
	c-0.1,0.5-1,0.1-1.2,0.5C35.2,14.3,36.7,14.4,37,14.3z M29.5,19.1c-0.4,0-0.2-0.1-0.2-0.3c0.6-0.2,2,0.1,3,0
	c0.3-0.1,1.2,0.1,0.5,0.2C31.3,18.9,30.9,19.4,29.5,19.1L29.5,19.1z M94.3,3.3c0.2-0.4,2.2,0.1,1.7-0.5C96,3.1,94,2.7,94.3,3.3z
	 M58.5,3.8c0.8,0.1,3.5-0.1,1.4-0.1c-0.4-0.2-1.1,0-1.6-0.5c-0.6,0.4-2.1-0.1-2.2,0.8C56.6,3.6,59.2,4.4,58.5,3.8z M52,3.6
	c-0.1-0.1-0.5,0.1-0.5,0.1c1,0.2,2.5-0.1,2.3,0.6C54.2,3.9,55,4,55.4,3.8c-0.3-0.1,0.1-0.2,0.1-0.3c-0.9,0.1-1.9,0.1-2.8,0
	c0-0.2,0.3-0.1,0.3-0.3c-1.3-0.1-5.9,0.8-2.8,0.3c0,0.2,0,0.3-0.1,0.5C50.6,4,51.4,3,52,3.6z M49,5.8c0.8-0.6,3.4-1,3.3-1.4
	C51.1,4.6,49.1,4.4,49,5.8L49,5.8z M72.9,6h1.3c-0.1-0.3-0.8-0.1-1.1-0.2s-0.5-0.5-0.6,0C72.6,6.1,72.8,5.6,72.9,6z M24.1,14.3
	c0.5-0.2,1-0.4,1.4-0.8c-0.4,0.2-1.9,0.2-1.7,0.5c0.2,0,0.6-0.1,0.6,0.2C24.2,14.1,23.8,14.1,24.1,14.3L24.1,14.3z M22.3,15.1
	c0.7,0.2,2.4,0.2,2.3-0.5C24,15,22.8,14.4,22.3,15.1L22.3,15.1z M29.3,15.7c0.1-0.3,0.9-0.1,0.9-0.5h-0.9
	C29.4,15.5,29.1,15.6,29.3,15.7L29.3,15.7z M23.6,16.6c0.8-0.2,2.2,0,2.3-0.5C25.3,16.4,24.2,16.2,23.6,16.6L23.6,16.6z M22.3,24.3
	c-0.3-0.5-0.8-0.1-1.4,0c-1-0.1-1.7,0.2-0.3,0.1c0.7-0.1,1.8,0.2,2.2-0.1c-0.4,0.2-0.5-0.6-0.6-0.2C22.2,24.1,22.3,24.2,22.3,24.3z
	 M114.1,34.6c0.3-0.2,1,0.4,1.9,0.2C116,33.6,114,34.2,114.1,34.6z"/>
<rect x="46.4" y="14.4" class="st1" width="47.8" height="9.9"/>
<text transform="matrix(1 0 0 1 49.5407 23.1633)" class="st2 st3">SE MERE</text>
</svg>
